<?xml version="1.0" encoding="UTF-8" standalone="no"?><!-- Generator: Gravit.io --><svg xmlns="http://www.w3.org/2000/svg" xmlns:xlink="http://www.w3.org/1999/xlink" style="isolation:isolate" viewBox="0 0 28 28" width="28pt" height="28pt"><defs><clipPath id="_clipPath_Nr4Un2oMthDd8ebCZ3JH6xRpAsuJ1E3e"><rect width="28" height="28"/></clipPath></defs><g clip-path="url(#_clipPath_Nr4Un2oMthDd8ebCZ3JH6xRpAsuJ1E3e)"><g><path d=" M 3.965 25.156 L 1.668 0 L 26.332 0 L 24.09 25.156 L 14.027 28" fill="rgb(38,77,228)"/><path d=" M 14.027 2.023 L 14.027 25.813 L 22.176 23.57 L 24.09 2.023" fill="rgb(41,101,241)"/><path d=" M 6.262 5.141 L 14.027 5.141 L 14.027 8.203 L 6.535 8.203 M 6.809 11.375 L 14.027 11.375 L 14.027 14.492 L 7.082 14.492 M 7.246 16.023 L 10.309 16.023 L 10.527 18.484 L 14.027 19.414 L 14.027 22.641 L 7.629 20.891" fill="rgb(235,235,235)"/><path d=" M 14.027 11.375 L 14.027 14.492 L 17.801 14.492 L 17.418 18.484 L 14.027 19.414 L 14.027 22.641 L 20.316 20.891 L 21.738 5.141 L 14.027 5.141 L 14.027 8.203 L 18.402 8.203 L 18.102 11.375 L 14.027 11.375 Z " fill="rgb(255,255,255)"/></g></g></svg>