<?xml version="1.0" encoding="UTF-8" standalone="no"?><!-- Generator: Gravit.io --><svg xmlns="http://www.w3.org/2000/svg" xmlns:xlink="http://www.w3.org/1999/xlink" style="isolation:isolate" viewBox="0 0 28 28" width="28pt" height="28pt"><defs><clipPath id="_clipPath_H5dFC5dCjowmg5aHKrPvFmih4GxtIKTa"><rect width="28" height="28"/></clipPath></defs><g clip-path="url(#_clipPath_H5dFC5dCjowmg5aHKrPvFmih4GxtIKTa)"><g><path d="M 4.2 0 L 23.8 0 C 26.118 0 28 1.882 28 4.2 L 28 23.8 C 28 26.118 26.118 28 23.8 28 L 4.2 28 C 1.882 28 0 26.118 0 23.8 L 0 4.2 C 0 1.882 1.882 0 4.2 0 Z" style="stroke:none;fill:#FFFFFF;stroke-miterlimit:10;"/><path d=" M 21.219 12.305 C 21.241 12.906 21.055 13.234 20.891 13.781 C 20.344 13.945 20.453 14.547 20.398 14.711 C 20.07 14.875 18.484 16.57 19.031 15.641 C 18.484 16.023 18.594 16.188 17.719 16.461 L 17.697 16.406 C 15.564 17.391 12.556 15.422 12.556 12.688 C 12.534 12.852 12.502 12.797 12.447 12.852 C 12.392 9.789 15.947 8.039 18.025 9.898 C 16.658 8.313 13.759 8.203 12.775 10.117 C 12.228 10.445 12.119 11.539 11.9 11.703 C 11.627 16.516 16.002 19.633 20.103 15.969 C 20.541 15.641 20.978 15.094 21.142 15.039 C 20.978 15.351 21.175 15.148 21.033 15.422 C 21.361 14.875 21.088 13.727 21.689 14.536 C 21.733 13.497 22.892 11.364 22.291 13.278 C 22.455 12.622 22.345 11.309 22.619 12.513 C 22.455 11.856 22.783 11.364 22.892 10.981 C 22.564 10.161 21.908 8.63 22.673 9.723 C 21.088 6.442 22.728 7.809 23.33 9.997 C 23.275 9.406 23.062 8.838 22.892 8.302 C 23.002 8.356 22.673 7.098 23.056 7.973 C 22.564 6.169 20.978 4.583 19.502 3.708 C 20.486 4.692 16.658 2.888 15.728 2.559 C 16.384 2.942 12.392 2.942 14.607 2.603 C 13.841 2.548 12.857 2.822 13.787 2.33 C 13.196 2.363 12.42 2.658 12.638 2.384 C 11.49 2.986 7.99 5.338 8.974 4.08 C 7.716 5.228 6.951 6.048 6.295 7.58 C 1.974 13.65 6.185 22.783 13.021 25.353 C 13.623 25.572 14.607 25.572 15.427 25.572 C 14.498 25.298 14.334 25.463 13.404 25.134 C 12.748 24.861 12.584 24.478 12.091 24.041 C 12.053 24.478 10.779 24.013 11.216 23.494 C 10.943 23.472 10.451 23.002 10.287 22.728 C 9.795 22.838 9.357 21.963 9.357 21.634 C 9.302 21.798 7.334 19.83 8.482 20.377 C 8.209 20.103 7.826 20.048 8.154 19.72 C 7.88 18.955 7.17 18.627 7.99 18.9 C 6.787 18.08 6.076 16.767 6.623 16.713 C 6.349 16.384 6.349 16.111 6.404 15.673 C 5.474 13.65 6.459 11.134 7.17 9.439 C 6.021 9.548 9.248 6.705 10.123 6.705 C 10.013 6.267 10.724 5.72 11.599 5.447 C 11.545 5.392 14.662 4.025 13.349 5.009 C 17.013 3.806 21.06 6.978 21.279 10.259 C 21.498 10.314 21.252 12.72 21.224 12.884" fill="rgb(215,7,81)"/></g></g></svg>