<?xml version="1.0" encoding="UTF-8" standalone="no"?><!-- Generator: Gravit.io --><svg xmlns="http://www.w3.org/2000/svg" xmlns:xlink="http://www.w3.org/1999/xlink" style="isolation:isolate" viewBox="0 0 28 28" width="28pt" height="28pt"><defs><clipPath id="_clipPath_6M0A6PLpFbNALH2m9JW2QRDNoL9OboTP"><rect width="28" height="28"/></clipPath></defs><g clip-path="url(#_clipPath_6M0A6PLpFbNALH2m9JW2QRDNoL9OboTP)"><g><path d="M 4.2 0 L 23.8 0 C 26.118 0 28 1.882 28 4.2 L 28 23.8 C 28 26.118 26.118 28 23.8 28 L 4.2 28 C 1.882 28 0 26.118 0 23.8 L 0 4.2 C 0 1.882 1.882 0 4.2 0 Z" style="stroke:none;fill:#F7DF1E;stroke-miterlimit:10;"/><path d=" M 17.719 20.234 C 18.266 21.164 19.031 21.82 20.289 21.82 C 21.383 21.82 22.094 21.273 22.094 20.508 C 22.094 19.633 21.383 19.305 20.18 18.758 L 19.523 18.484 C 17.609 17.664 16.352 16.68 16.352 14.547 C 16.352 12.578 17.828 11.047 20.18 11.047 C 21.875 11.047 23.078 11.648 23.898 13.18 L 21.875 14.492 C 21.438 13.672 20.945 13.344 20.18 13.344 C 19.414 13.344 18.922 13.836 18.922 14.492 C 18.922 15.258 19.414 15.586 20.563 16.078 L 21.219 16.352 C 23.461 17.336 24.719 18.266 24.719 20.508 C 24.719 22.859 22.859 24.172 20.344 24.172 C 17.883 24.172 16.297 23.023 15.531 21.492 L 17.719 20.234 Z  M 8.422 20.453 C 8.859 21.164 9.188 21.82 10.117 21.82 C 10.992 21.82 11.539 21.492 11.539 20.18 L 11.539 11.102 L 14.164 11.102 L 14.164 20.07 C 14.164 22.805 12.578 24.008 10.227 24.008 C 8.094 24.008 6.891 22.914 6.289 21.602 L 8.422 20.453 Z " fill="rgb(0,0,0)"/></g></g></svg>