<?xml version="1.0" encoding="UTF-8" standalone="no"?><!-- Generator: Gravit.io --><svg xmlns="http://www.w3.org/2000/svg" xmlns:xlink="http://www.w3.org/1999/xlink" style="isolation:isolate" viewBox="0 0 28 28" width="28pt" height="28pt"><defs><clipPath id="_clipPath_wV2jrKQtJTTZ86iuwkaARvYGgrSV3c4I"><rect width="28" height="28"/></clipPath></defs><g clip-path="url(#_clipPath_wV2jrKQtJTTZ86iuwkaARvYGgrSV3c4I)"><g><path d="M 4.2 0 L 23.8 0 C 26.118 0 28 1.882 28 4.2 L 28 23.8 C 28 26.118 26.118 28 23.8 28 L 4.2 28 C 1.882 28 0 26.118 0 23.8 L 0 4.2 C 0 1.882 1.882 0 4.2 0 Z" style="stroke:none;fill:#FFFFFF;stroke-miterlimit:10;"/><g><path d=" M 10.5 11.266 C 10.172 12.031 7.875 14.438 8.094 16.844 C 8.969 26.906 12.031 20.125 16.625 22.641 C 16.625 22.641 24.828 18.047 18.266 10.609 C 16.406 7.984 18.047 5.906 16.844 4.156 C 15.641 2.406 13.563 2.297 12.031 3.938 C 10.5 5.578 12.688 7.984 10.5 11.266 Z " fill="rgb(51,51,51)"/><path d=" M 18.594 16.297 C 18.594 16.297 19.578 14.328 17.719 12.906 C 19.469 14.766 18.375 16.406 18.375 16.406 L 18.047 16.406 C 17.938 12.578 16.953 14.656 15.531 7.875 C 17.172 6.016 14 4.375 14 7.438 L 13.016 7.438 C 13.125 4.813 10.828 6.125 12.141 7.984 C 12.031 12.031 9.625 13.672 9.625 16.516 C 8.859 14.547 10.281 13.016 10.281 13.016 C 10.281 13.016 8.313 14.656 9.516 17.063 C 10.719 19.469 12.906 18.922 11.375 20.016 C 13.781 21.656 17.5 20.563 17.391 17.063 C 17.5 16.188 19.797 16.516 20.016 16.734 C 20.234 16.953 19.688 16.297 18.594 16.297 Z  M 12.469 7.766 C 11.703 7.547 11.922 6.563 12.25 6.563 C 12.578 6.563 13.125 7.328 12.469 7.766 Z  M 14.547 7.875 C 14 7.109 14.438 6.344 14.984 6.453 C 15.531 6.563 15.531 7.875 14.547 7.875 Z " fill="rgb(238,238,238)"/><g><path d=" M 9.516 17.391 L 11.813 20.672 C 13.016 21.438 12.359 24.5 9.078 22.969 C 7.219 22.422 5.688 22.531 5.469 21.547 C 5.25 20.563 5.906 20.453 5.797 20.016 C 5.359 17.609 7.328 18.813 7.875 17.609 C 8.422 16.406 8.422 15.859 9.516 17.391 Z  M 21.766 18.922 C 21.328 18.266 21.766 17.063 20.234 17.172 C 19.578 18.484 17.719 19.797 17.609 17.172 C 16.516 17.172 17.281 19.797 16.844 21 C 15.859 23.953 18.703 24.172 19.906 22.75 L 22.75 20.781 C 22.969 20.453 23.297 20.125 21.766 18.922 Z  M 11.703 8.859 C 11.375 8.203 12.906 7.328 13.453 7.328 C 14 7.328 14.766 7.766 15.531 7.984 C 16.297 8.203 15.969 8.969 15.75 9.078 C 15.531 9.188 14.328 10.172 13.453 10.172 C 12.578 10.172 12.359 9.297 11.703 8.859 Z " fill="rgb(255,204,34)" vector-effect="non-scaling-stroke" stroke-width="0.1" stroke="rgb(51,51,51)" stroke-linejoin="miter" stroke-linecap="butt" stroke-miterlimit="4"/><mask id="_mask_FRLyBlE00pwxFFYOXSMuB0fRdaJu0RNU" x="-200%" y="-200%" width="400%" height="400%"><rect x="-200%" y="-200%" width="400%" height="400%" style="fill:white;"/><path d=" M 11.922 8.913 C 12.797 9.569 13.781 10.116 15.75 8.585" fill="black" stroke="none"/></mask><path d=" M 11.922 8.913 C 12.797 9.569 13.781 10.116 15.75 8.585" fill="rgb(255,204,34)"/><path d=" M 11.922 8.913 C 12.797 9.569 13.781 10.116 15.75 8.585" fill="rgb(255,204,34)" mask="url(#_mask_FRLyBlE00pwxFFYOXSMuB0fRdaJu0RNU)" vector-effect="non-scaling-stroke" stroke-width="0.2" stroke="rgb(51,51,51)" stroke-linejoin="miter" stroke-linecap="butt" stroke-miterlimit="4"/></g><path d=" M 12.906 8.094 C 12.688 8.094 13.016 7.875 13.125 7.984 M 13.891 8.094 C 14 7.984 13.781 7.875 13.563 7.984" fill="rgb(51,51,51)"/></g></g></g></svg>