<?xml version="1.0" encoding="UTF-8" standalone="no"?><!-- Generator: Gravit.io --><svg xmlns="http://www.w3.org/2000/svg" xmlns:xlink="http://www.w3.org/1999/xlink" style="isolation:isolate" viewBox="0 0 114.1 28" width="114.1pt" height="28pt"><defs><clipPath id="_clipPath_nSQocBLf0mqLy1jOK6RFf7iOSnLlvFk7"><rect width="114.1" height="28"/></clipPath></defs><g clip-path="url(#_clipPath_nSQocBLf0mqLy1jOK6RFf7iOSnLlvFk7)"><path d="M 3.22 0 L 110.88 0 C 112.657 0 114.1 1.443 114.1 3.22 L 114.1 24.78 C 114.1 26.557 112.657 28 110.88 28 L 3.22 28 C 1.443 28 0 26.557 0 24.78 L 0 3.22 C 0 1.443 1.443 0 3.22 0 Z" style="stroke:none;fill:#FFFFFF;stroke-miterlimit:10;"/><clipPath id="_clipPath_bFg90iFghkzuGzwXJHkITNcNaNYrrxKv"><rect x="4.5" y="1.104" width="105.1" height="25.791" transform="matrix(1,0,0,1,0,0)" fill="rgb(255,255,255)"/></clipPath><g clip-path="url(#_clipPath_bFg90iFghkzuGzwXJHkITNcNaNYrrxKv)"><g><g><path d=" M 12.143 3.76 C 11.141 2.576 10.278 1.367 10.101 1.121 C 10.094 1.111 10.082 1.104 10.069 1.104 C 10.056 1.104 10.044 1.111 10.037 1.121 C 9.862 1.37 8.999 2.579 7.997 3.763 C -0.597 14.706 9.352 22.091 9.352 22.091 L 9.433 22.147 C 9.508 23.29 9.696 24.928 9.696 24.928 L 10.444 24.928 C 10.444 24.928 10.629 23.293 10.707 22.147 L 10.788 22.084 C 10.788 22.084 20.736 14.706 12.143 3.76 Z  M 10.07 21.929 L 10.07 21.929 C 10.07 21.929 9.624 21.549 9.504 21.358 L 9.504 21.338 L 10.043 9.42 C 10.046 9.406 10.058 9.396 10.072 9.396 C 10.086 9.396 10.098 9.406 10.099 9.42 L 10.641 21.339 L 10.641 21.36 C 10.52 21.545 10.075 21.931 10.075 21.931" fill="rgb(0,104,74)"/><path d=" M 28.649 19.491 L 24.518 9.428 L 24.506 9.399 L 21.285 9.399 L 21.285 10.072 L 21.802 10.072 C 21.959 10.072 22.109 10.136 22.22 10.247 C 22.329 10.359 22.391 10.509 22.389 10.666 L 22.296 20.802 C 22.294 21.119 22.039 21.377 21.721 21.384 L 21.192 21.389 L 21.192 22.06 L 24.327 22.06 L 24.327 21.39 L 24.005 21.384 C 23.685 21.375 23.43 21.116 23.429 20.796 L 23.429 11.249 L 27.935 22.053 C 28 22.207 28.151 22.309 28.318 22.309 C 28.486 22.309 28.637 22.207 28.702 22.053 L 33.105 11.485 L 33.167 20.795 C 33.168 21.118 32.909 21.382 32.587 21.386 L 32.255 21.386 L 32.255 22.057 L 35.924 22.057 L 35.924 21.386 L 35.422 21.386 C 35.102 21.382 34.845 21.122 34.842 20.802 L 34.812 10.669 C 34.812 10.348 35.069 10.085 35.391 10.08 L 35.926 10.075 L 35.926 9.399 L 32.796 9.399 L 28.649 19.491 Z " fill="rgb(0,104,74)"/><path d=" M 57.53 21.229 C 57.424 21.121 57.367 20.974 57.373 20.822 L 57.373 15.86 C 57.373 14.917 57.096 14.172 56.54 13.644 C 55.983 13.117 55.232 12.851 54.289 12.851 C 52.96 12.851 51.917 13.388 51.186 14.448 C 51.173 14.468 51.149 14.477 51.126 14.473 C 51.102 14.47 51.083 14.452 51.077 14.428 L 50.735 13.102 L 50.161 13.102 L 48.683 13.947 L 48.683 14.411 L 49.064 14.411 C 49.22 14.403 49.372 14.453 49.491 14.552 C 49.602 14.664 49.659 14.819 49.646 14.975 L 49.646 20.825 C 49.654 20.977 49.597 21.124 49.489 21.232 C 49.383 21.339 49.234 21.397 49.083 21.389 L 48.712 21.389 L 48.712 22.064 L 52.108 22.064 L 52.108 21.389 L 51.738 21.389 C 51.586 21.397 51.438 21.339 51.33 21.233 C 51.223 21.125 51.166 20.977 51.173 20.825 L 51.173 16.951 C 51.178 16.446 51.288 15.948 51.497 15.489 C 51.705 15.02 52.033 14.613 52.448 14.313 C 52.88 14.005 53.401 13.843 53.931 13.854 C 54.58 13.854 55.069 14.06 55.375 14.465 C 55.682 14.87 55.839 15.402 55.839 16.035 L 55.839 20.822 C 55.846 20.974 55.789 21.121 55.682 21.229 C 55.574 21.337 55.427 21.394 55.275 21.386 L 54.904 21.386 L 54.904 22.061 L 58.301 22.061 L 58.301 21.386 L 57.93 21.386 C 57.779 21.393 57.63 21.336 57.523 21.229" fill="rgb(0,104,74)"/><path d=" M 88.652 10.158 C 87.682 9.65 86.601 9.389 85.505 9.399 L 81.056 9.399 L 81.056 10.072 L 81.487 10.072 C 81.847 10.099 82.133 10.386 82.159 10.745 L 82.159 20.714 C 82.155 20.891 82.079 21.059 81.948 21.178 C 81.829 21.31 81.661 21.386 81.485 21.389 L 81.054 21.389 L 81.054 22.064 L 85.503 22.064 C 86.598 22.074 87.679 21.813 88.649 21.304 C 89.596 20.801 90.383 20.042 90.92 19.113 C 91.476 18.165 91.762 17.028 91.762 15.732 C 91.762 14.436 91.483 13.3 90.92 12.351 C 90.383 11.424 89.596 10.665 88.649 10.161 M 89.981 15.732 C 89.981 16.915 89.768 17.923 89.349 18.727 C 88.929 19.53 88.372 20.133 87.688 20.522 C 87 20.912 86.222 21.114 85.432 21.108 L 84.534 21.108 C 84.356 21.106 84.188 21.03 84.069 20.898 C 83.939 20.779 83.863 20.612 83.858 20.435 L 83.858 11.025 C 83.885 10.666 84.171 10.38 84.531 10.353 L 85.429 10.353 C 86.219 10.348 86.998 10.55 87.686 10.939 C 88.369 11.329 88.927 11.932 89.346 12.734 C 89.765 13.536 89.978 14.546 89.978 15.729" fill="rgb(0,104,74)"/><path d=" M 102.252 16.4 C 101.848 15.931 101.06 15.531 100.126 15.317 C 101.409 14.681 102.061 13.775 102.061 12.623 C 102.07 12.025 101.895 11.439 101.559 10.945 C 101.203 10.443 100.714 10.048 100.148 9.807 C 99.484 9.523 98.768 9.384 98.045 9.399 L 93.049 9.399 L 93.049 10.072 L 93.445 10.072 C 93.805 10.099 94.091 10.386 94.117 10.745 L 94.117 20.714 C 94.113 20.892 94.037 21.059 93.906 21.178 C 93.788 21.31 93.619 21.387 93.443 21.389 L 93.012 21.389 L 93.012 22.064 L 98.434 22.064 C 99.216 22.072 99.994 21.93 100.723 21.647 C 101.377 21.398 101.949 20.974 102.377 20.419 C 102.782 19.881 102.987 19.223 102.987 18.462 C 103.003 17.708 102.739 16.973 102.246 16.402 M 96.035 20.898 C 95.905 20.779 95.828 20.612 95.824 20.435 L 95.824 15.953 L 98.399 15.953 C 99.304 15.953 100.007 16.187 100.485 16.649 C 100.964 17.111 101.207 17.721 101.207 18.455 C 101.207 18.901 101.097 19.342 100.889 19.736 C 100.67 20.148 100.34 20.489 99.937 20.722 C 99.515 20.974 98.998 21.102 98.398 21.102 L 96.495 21.102 C 96.317 21.099 96.15 21.024 96.031 20.892 M 95.83 15 L 95.83 11.025 C 95.857 10.666 96.142 10.38 96.503 10.353 L 97.727 10.353 C 98.606 10.353 99.26 10.573 99.668 11.003 C 100.076 11.433 100.284 11.997 100.284 12.676 C 100.284 13.379 100.091 13.948 99.713 14.369 C 99.333 14.79 98.757 14.999 97.996 14.999 L 95.83 15 Z " fill="rgb(0,104,74)"/><path d=" M 44.598 13.436 C 43.113 12.65 41.335 12.65 39.849 13.436 C 39.141 13.825 38.554 14.403 38.153 15.104 C 37.319 16.648 37.319 18.509 38.153 20.053 C 38.554 20.755 39.141 21.332 39.849 21.721 C 41.335 22.507 43.113 22.507 44.598 21.721 C 45.308 21.332 45.894 20.755 46.295 20.053 C 47.13 18.509 47.13 16.648 46.295 15.104 C 45.894 14.403 45.307 13.825 44.598 13.436 Z  M 45.285 17.579 C 45.285 18.724 45.006 19.644 44.45 20.315 C 43.894 20.986 43.152 21.322 42.225 21.322 C 41.298 21.322 40.549 20.982 40 20.315 C 39.452 19.647 39.166 18.724 39.166 17.579 C 39.166 16.435 39.445 15.514 40 14.843 C 40.556 14.172 41.298 13.837 42.225 13.837 C 43.152 13.837 43.901 14.176 44.45 14.843 C 44.999 15.511 45.285 16.435 45.285 17.579 Z " fill="rgb(0,104,74)"/><path d=" M 77.315 13.436 C 75.829 12.65 74.05 12.65 72.565 13.436 C 71.857 13.825 71.269 14.403 70.869 15.104 C 70.034 16.648 70.034 18.509 70.869 20.053 C 71.269 20.755 71.857 21.332 72.565 21.721 C 74.051 22.507 75.829 22.507 77.315 21.721 C 78.023 21.332 78.611 20.755 79.011 20.053 C 79.845 18.509 79.845 16.648 79.011 15.104 C 78.61 14.403 78.023 13.825 77.315 13.436 Z  M 78 17.579 C 78 18.724 77.722 19.644 77.165 20.315 C 76.609 20.986 75.868 21.322 74.941 21.322 C 74.013 21.322 73.265 20.982 72.716 20.315 C 72.167 19.647 71.882 18.724 71.882 17.579 C 71.882 16.435 72.16 15.514 72.716 14.843 C 73.272 14.172 74.013 13.837 74.941 13.837 C 75.868 13.837 76.616 14.176 77.165 14.843 C 77.714 15.511 78 16.435 78 17.579 Z " fill="rgb(0,104,74)"/><path d=" M 64.109 12.847 C 63.405 12.838 62.709 13 62.082 13.318 C 61.497 13.61 61.001 14.054 60.645 14.603 C 60.303 15.133 60.122 15.752 60.125 16.383 C 60.117 16.934 60.255 17.477 60.523 17.959 C 60.784 18.416 61.145 18.807 61.58 19.104 L 60.258 20.901 C 60.095 21.123 60.071 21.418 60.196 21.664 C 60.32 21.91 60.572 22.065 60.848 22.065 L 61.227 22.065 C 60.874 22.296 60.577 22.601 60.356 22.961 C 60.123 23.335 59.998 23.767 59.994 24.207 C 59.994 25.003 60.347 25.659 61.04 26.154 C 61.733 26.649 62.693 26.896 63.903 26.896 C 64.716 26.901 65.524 26.765 66.291 26.492 C 66.98 26.256 67.596 25.846 68.082 25.303 C 68.532 24.786 68.774 24.121 68.762 23.437 C 68.762 22.679 68.485 22.139 67.835 21.622 C 67.279 21.184 66.409 20.951 65.324 20.951 L 61.616 20.951 C 61.607 20.951 61.598 20.946 61.594 20.939 C 61.589 20.931 61.589 20.922 61.594 20.915 L 62.556 19.617 C 62.785 19.722 63.023 19.803 63.269 19.856 C 63.514 19.903 63.762 19.925 64.011 19.923 C 64.736 19.935 65.453 19.773 66.104 19.451 C 66.694 19.159 67.196 18.715 67.558 18.166 C 67.906 17.638 68.091 17.019 68.089 16.387 C 68.089 15.699 67.759 14.446 66.848 13.807 C 66.849 13.806 66.85 13.804 66.851 13.803 C 66.853 13.802 66.854 13.801 66.856 13.802 L 68.855 14.022 L 68.855 13.107 L 65.665 13.107 C 65.165 12.934 64.639 12.846 64.109 12.847 Z  M 65.221 18.646 L 65.221 18.646 C 64.88 18.831 64.497 18.929 64.109 18.93 C 63.5 18.934 62.914 18.697 62.479 18.27 C 62.016 17.834 61.785 17.198 61.785 16.382 C 61.785 15.565 62.019 14.929 62.479 14.493 C 62.915 14.066 63.501 13.83 64.109 13.833 C 64.497 13.834 64.88 13.932 65.221 14.117 C 65.584 14.316 65.884 14.61 66.091 14.968 C 66.316 15.346 66.429 15.821 66.429 16.382 C 66.429 16.943 66.316 17.418 66.091 17.794 C 65.885 18.153 65.584 18.447 65.221 18.645 M 62.704 22.06 L 65.217 22.06 C 65.916 22.06 66.359 22.195 66.657 22.498 C 66.956 22.81 67.116 23.229 67.1 23.661 C 67.117 24.308 66.819 24.925 66.302 25.315 C 65.765 25.736 65.04 25.949 64.146 25.949 C 63.363 25.949 62.722 25.777 62.241 25.436 C 61.76 25.094 61.524 24.596 61.524 23.944 C 61.52 23.544 61.638 23.152 61.861 22.822 C 62.071 22.497 62.363 22.236 62.708 22.063" fill="rgb(0,104,74)"/><path d=" M 104.881 21.948 C 104.701 21.845 104.552 21.695 104.451 21.515 C 104.242 21.143 104.242 20.69 104.451 20.32 C 104.553 20.139 104.703 19.991 104.884 19.89 C 105.272 19.678 105.74 19.678 106.128 19.89 C 106.309 19.991 106.459 20.139 106.562 20.32 C 106.769 20.691 106.769 21.143 106.562 21.515 C 106.459 21.694 106.309 21.843 106.128 21.945 C 105.74 22.155 105.272 22.155 104.884 21.945 M 106.022 21.807 C 106.173 21.722 106.298 21.596 106.382 21.443 C 106.556 21.114 106.556 20.72 106.382 20.391 C 106.298 20.238 106.173 20.112 106.022 20.026 C 105.7 19.85 105.311 19.85 104.99 20.026 C 104.839 20.112 104.713 20.239 104.63 20.391 C 104.456 20.721 104.456 21.114 104.63 21.443 C 104.714 21.596 104.839 21.721 104.99 21.807 C 105.311 21.984 105.701 21.984 106.022 21.807 Z  M 105.003 21.484 L 105.003 21.402 L 105.019 21.389 L 105.075 21.389 C 105.093 21.388 105.11 21.381 105.122 21.368 C 105.135 21.356 105.143 21.339 105.143 21.321 L 105.143 20.461 C 105.143 20.443 105.135 20.426 105.122 20.414 C 105.11 20.401 105.093 20.393 105.075 20.393 L 105.019 20.393 L 105.003 20.38 L 105.003 20.299 L 105.019 20.285 L 105.501 20.285 C 105.617 20.28 105.731 20.312 105.827 20.378 C 105.907 20.44 105.952 20.537 105.947 20.639 C 105.948 20.723 105.915 20.805 105.855 20.864 C 105.791 20.93 105.708 20.97 105.618 20.98 L 105.729 21.013 L 105.944 21.352 C 105.956 21.375 105.98 21.39 106.006 21.391 L 106.061 21.391 L 106.074 21.404 L 106.074 21.486 L 106.061 21.499 L 105.777 21.499 L 105.758 21.486 L 105.459 20.987 L 105.388 20.987 L 105.388 21.329 C 105.387 21.347 105.395 21.364 105.409 21.376 C 105.421 21.389 105.437 21.398 105.456 21.398 L 105.51 21.398 L 105.527 21.41 L 105.527 21.492 L 105.51 21.505 L 105.019 21.505 L 105.003 21.484 Z  M 105.466 20.878 C 105.53 20.882 105.594 20.86 105.641 20.815 C 105.685 20.767 105.708 20.702 105.704 20.637 C 105.706 20.572 105.685 20.51 105.645 20.46 C 105.605 20.415 105.548 20.391 105.488 20.393 L 105.453 20.393 C 105.416 20.395 105.387 20.424 105.384 20.461 L 105.384 20.878 L 105.466 20.878 Z " fill="rgb(0,104,74)"/></g></g></g></g></svg>