<?xml version="1.0" encoding="UTF-8" standalone="no"?><!-- Generator: Gravit.io --><svg xmlns="http://www.w3.org/2000/svg" xmlns:xlink="http://www.w3.org/1999/xlink" style="isolation:isolate" viewBox="0 0 114.1 28" width="114.1pt" height="28pt"><defs><clipPath id="_clipPath_OitBEiwFGF6vMxWbsZSrGmqnEk5u59px"><rect width="114.1" height="28"/></clipPath></defs><g clip-path="url(#_clipPath_OitBEiwFGF6vMxWbsZSrGmqnEk5u59px)"><g><path d=" M 8.298 2.883 C 7.21 1.598 6.273 0.285 6.081 0.018 C 6.073 0.007 6.06 0 6.046 0 C 6.032 0 6.019 0.007 6.011 0.018 C 5.821 0.288 4.884 1.601 3.797 2.886 C -5.533 14.766 5.267 22.784 5.267 22.784 L 5.355 22.845 C 5.437 24.085 5.641 25.864 5.641 25.864 L 6.453 25.864 C 6.453 25.864 6.654 24.089 6.738 22.845 L 6.826 22.776 C 6.826 22.776 17.626 14.766 8.298 2.883 Z  M 6.047 22.608 L 6.047 22.608 C 6.047 22.608 5.563 22.195 5.432 21.988 L 5.432 21.966 L 6.018 9.028 C 6.021 9.013 6.034 9.002 6.049 9.002 C 6.064 9.002 6.077 9.013 6.079 9.028 L 6.667 21.968 L 6.667 21.99 C 6.536 22.191 6.052 22.61 6.052 22.61" fill="rgb(0,104,74)"/><path d=" M 26.217 19.961 L 21.732 9.036 L 21.719 9.005 L 18.222 9.005 L 18.222 9.736 L 18.784 9.736 C 18.954 9.736 19.117 9.805 19.237 9.926 C 19.356 10.047 19.423 10.21 19.421 10.381 L 19.32 21.384 C 19.318 21.729 19.041 22.009 18.696 22.016 L 18.121 22.022 L 18.121 22.75 L 21.525 22.75 L 21.525 22.023 L 21.175 22.016 C 20.828 22.007 20.551 21.725 20.55 21.378 L 20.55 11.013 L 25.442 22.743 C 25.512 22.91 25.676 23.02 25.858 23.02 C 26.04 23.02 26.204 22.91 26.275 22.743 L 31.055 11.27 L 31.122 21.377 C 31.123 21.728 30.842 22.014 30.492 22.019 L 30.132 22.019 L 30.132 22.747 L 34.115 22.747 L 34.115 22.019 L 33.57 22.019 C 33.222 22.014 32.943 21.732 32.94 21.384 L 32.908 10.384 C 32.908 10.035 33.187 9.75 33.536 9.744 L 34.117 9.739 L 34.117 9.005 L 30.719 9.005 L 26.217 19.961 Z " fill="rgb(0,104,74)"/><path d=" M 57.571 21.848 C 57.456 21.731 57.394 21.571 57.401 21.406 L 57.401 16.019 C 57.401 14.996 57.1 14.187 56.496 13.614 C 55.892 13.041 55.076 12.753 54.053 12.753 C 52.61 12.753 51.477 13.336 50.684 14.486 C 50.67 14.508 50.644 14.518 50.619 14.514 C 50.593 14.51 50.572 14.491 50.566 14.465 L 50.194 13.025 L 49.571 13.025 L 47.967 13.943 L 47.967 14.446 L 48.38 14.446 C 48.549 14.437 48.714 14.492 48.844 14.599 C 48.964 14.721 49.026 14.889 49.012 15.059 L 49.012 21.409 C 49.021 21.574 48.959 21.734 48.842 21.851 C 48.726 21.968 48.565 22.03 48.401 22.022 L 47.998 22.022 L 47.998 22.754 L 51.685 22.754 L 51.685 22.022 L 51.283 22.022 C 51.118 22.03 50.957 21.968 50.84 21.852 C 50.724 21.735 50.662 21.574 50.67 21.409 L 50.67 17.204 C 50.675 16.656 50.795 16.115 51.022 15.617 C 51.247 15.107 51.603 14.666 52.054 14.34 C 52.523 14.005 53.088 13.83 53.664 13.842 C 54.368 13.842 54.899 14.065 55.232 14.505 C 55.565 14.944 55.735 15.522 55.735 16.209 L 55.735 21.406 C 55.743 21.571 55.681 21.731 55.565 21.848 C 55.448 21.965 55.288 22.027 55.123 22.019 L 54.72 22.019 L 54.72 22.751 L 58.408 22.751 L 58.408 22.019 L 58.005 22.019 C 57.841 22.026 57.68 21.964 57.563 21.848" fill="rgb(0,104,74)"/><path d=" M 91.358 9.829 C 90.305 9.277 89.131 8.994 87.942 9.005 L 83.112 9.005 L 83.112 9.736 L 83.58 9.736 C 83.97 9.765 84.281 10.076 84.309 10.466 L 84.309 21.289 C 84.305 21.481 84.222 21.663 84.08 21.793 C 83.951 21.936 83.769 22.019 83.577 22.022 L 83.109 22.022 L 83.109 22.754 L 87.939 22.754 C 89.128 22.765 90.302 22.482 91.355 21.929 C 92.383 21.383 93.237 20.559 93.82 19.551 C 94.424 18.522 94.734 17.287 94.734 15.88 C 94.734 14.473 94.432 13.24 93.82 12.21 C 93.237 11.203 92.383 10.379 91.355 9.832 M 92.801 15.88 C 92.801 17.165 92.57 18.259 92.115 19.132 C 91.659 20.004 91.054 20.658 90.312 21.081 C 89.565 21.504 88.72 21.723 87.862 21.717 L 86.887 21.717 C 86.694 21.714 86.512 21.632 86.383 21.489 C 86.242 21.359 86.159 21.178 86.154 20.986 L 86.154 10.77 C 86.183 10.38 86.493 10.07 86.884 10.041 L 87.859 10.041 C 88.717 10.035 89.562 10.255 90.309 10.677 C 91.051 11.1 91.657 11.755 92.112 12.626 C 92.566 13.496 92.798 14.593 92.798 15.877" fill="rgb(0,104,74)"/><path d=" M 106.123 16.605 C 105.684 16.096 104.829 15.662 103.815 15.43 C 105.208 14.739 105.915 13.756 105.915 12.505 C 105.925 11.856 105.735 11.22 105.37 10.683 C 104.984 10.138 104.453 9.71 103.839 9.448 C 103.118 9.14 102.34 8.989 101.556 9.005 L 96.132 9.005 L 96.132 9.736 L 96.562 9.736 C 96.952 9.765 97.263 10.076 97.291 10.466 L 97.291 21.289 C 97.287 21.482 97.204 21.664 97.062 21.793 C 96.934 21.936 96.751 22.02 96.559 22.022 L 96.091 22.022 L 96.091 22.754 L 101.978 22.754 C 102.827 22.763 103.671 22.609 104.463 22.302 C 105.173 22.032 105.794 21.571 106.258 20.969 C 106.698 20.385 106.921 19.67 106.921 18.844 C 106.938 18.025 106.651 17.228 106.116 16.608 M 99.373 21.489 C 99.232 21.359 99.149 21.178 99.144 20.986 L 99.144 16.12 L 101.94 16.12 C 102.922 16.12 103.685 16.374 104.205 16.876 C 104.725 17.377 104.988 18.04 104.988 18.837 C 104.988 19.321 104.869 19.799 104.643 20.227 C 104.405 20.674 104.047 21.045 103.609 21.298 C 103.151 21.571 102.59 21.71 101.939 21.71 L 99.873 21.71 C 99.68 21.707 99.498 21.625 99.369 21.482 M 99.151 15.086 L 99.151 10.77 C 99.18 10.38 99.49 10.07 99.881 10.041 L 101.21 10.041 C 102.165 10.041 102.875 10.279 103.317 10.746 C 103.76 11.213 103.986 11.826 103.986 12.563 C 103.986 13.326 103.777 13.944 103.366 14.401 C 102.954 14.858 102.328 15.085 101.502 15.085 L 99.151 15.086 Z " fill="rgb(0,104,74)"/><path d=" M 43.532 13.388 C 41.919 12.534 39.989 12.534 38.376 13.388 C 37.607 13.81 36.97 14.437 36.535 15.199 C 35.629 16.875 35.629 18.895 36.535 20.571 C 36.97 21.333 37.607 21.96 38.376 22.382 C 39.989 23.235 41.919 23.235 43.532 22.382 C 44.302 21.96 44.939 21.333 45.374 20.571 C 46.28 18.895 46.28 16.875 45.374 15.199 C 44.939 14.437 44.301 13.81 43.532 13.388 M 44.277 17.886 C 44.277 19.128 43.975 20.127 43.371 20.856 C 42.767 21.584 41.962 21.949 40.956 21.949 C 39.949 21.949 39.136 21.58 38.54 20.856 C 37.945 20.131 37.635 19.129 37.635 17.886 C 37.635 16.643 37.937 15.644 38.54 14.915 C 39.144 14.187 39.949 13.823 40.956 13.823 C 41.962 13.823 42.775 14.191 43.371 14.915 C 43.967 15.64 44.277 16.643 44.277 17.886 Z " fill="rgb(0,104,74)"/><path d=" M 79.05 13.388 C 77.437 12.534 75.506 12.534 73.894 13.388 C 73.125 13.81 72.487 14.437 72.052 15.199 C 71.146 16.875 71.146 18.895 72.052 20.571 C 72.487 21.333 73.125 21.96 73.894 22.382 C 75.507 23.235 77.437 23.235 79.05 22.382 C 79.819 21.96 80.457 21.333 80.892 20.571 C 81.797 18.895 81.797 16.875 80.892 15.199 C 80.456 14.437 79.819 13.81 79.05 13.388 M 79.794 17.886 C 79.794 19.128 79.492 20.127 78.888 20.856 C 78.284 21.584 77.479 21.949 76.473 21.949 C 75.466 21.949 74.653 21.58 74.058 20.856 C 73.462 20.131 73.152 19.129 73.152 17.886 C 73.152 16.643 73.454 15.644 74.058 14.915 C 74.661 14.187 75.466 13.823 76.473 13.823 C 77.479 13.823 78.292 14.191 78.888 14.915 C 79.484 15.64 79.794 16.643 79.794 17.886 Z " fill="rgb(0,104,74)"/><path d=" M 64.714 12.748 C 63.949 12.739 63.194 12.914 62.513 13.26 C 61.878 13.577 61.339 14.059 60.953 14.655 C 60.582 15.23 60.385 15.902 60.388 16.587 C 60.38 17.185 60.529 17.775 60.82 18.298 C 61.104 18.794 61.496 19.219 61.968 19.541 L 60.533 21.492 C 60.356 21.733 60.33 22.053 60.465 22.32 C 60.6 22.587 60.874 22.756 61.173 22.756 L 61.585 22.756 C 61.202 23.006 60.879 23.338 60.639 23.728 C 60.386 24.134 60.25 24.603 60.246 25.081 C 60.246 25.945 60.629 26.657 61.382 27.195 C 62.134 27.732 63.176 28 64.49 28 C 65.373 28.006 66.25 27.858 67.082 27.562 C 67.83 27.305 68.499 26.86 69.027 26.271 C 69.515 25.71 69.778 24.988 69.765 24.245 C 69.765 23.422 69.464 22.836 68.759 22.275 C 68.155 21.799 67.21 21.546 66.032 21.546 L 62.007 21.546 C 61.997 21.546 61.988 21.541 61.983 21.533 C 61.978 21.525 61.978 21.515 61.983 21.507 L 63.028 20.098 C 63.276 20.212 63.535 20.3 63.802 20.358 C 64.067 20.408 64.337 20.432 64.607 20.43 C 65.394 20.443 66.173 20.267 66.879 19.918 C 67.52 19.601 68.065 19.119 68.458 18.523 C 68.836 17.95 69.037 17.277 69.034 16.591 C 69.034 15.844 68.676 14.484 67.687 13.791 C 67.688 13.789 67.689 13.787 67.69 13.786 C 67.692 13.785 67.694 13.784 67.696 13.785 L 69.866 14.024 L 69.866 13.031 L 66.403 13.031 C 65.86 12.843 65.289 12.747 64.714 12.748 M 65.921 19.044 L 65.921 19.044 C 65.55 19.245 65.135 19.351 64.714 19.352 C 64.052 19.357 63.416 19.099 62.944 18.636 C 62.441 18.162 62.191 17.472 62.191 16.586 C 62.191 15.699 62.444 15.009 62.944 14.535 C 63.417 14.072 64.053 13.815 64.714 13.819 C 65.135 13.82 65.55 13.926 65.921 14.127 C 66.315 14.343 66.641 14.662 66.865 15.051 C 67.109 15.461 67.232 15.977 67.232 16.586 C 67.232 17.195 67.109 17.711 66.865 18.119 C 66.642 18.509 66.315 18.828 65.921 19.043 M 63.188 22.75 L 65.916 22.75 C 66.675 22.75 67.156 22.897 67.48 23.226 C 67.804 23.564 67.978 24.019 67.961 24.488 C 67.979 25.191 67.656 25.861 67.094 26.284 C 66.511 26.741 65.724 26.972 64.754 26.972 C 63.904 26.972 63.208 26.785 62.686 26.415 C 62.163 26.044 61.907 25.503 61.907 24.795 C 61.903 24.361 62.031 23.936 62.273 23.577 C 62.501 23.225 62.818 22.941 63.192 22.753" fill="rgb(0,104,74)"/><path d=" M 108.977 22.629 C 108.781 22.517 108.62 22.354 108.51 22.158 C 108.283 21.755 108.283 21.263 108.51 20.861 C 108.621 20.665 108.784 20.504 108.98 20.394 C 109.401 20.164 109.91 20.164 110.331 20.394 C 110.527 20.504 110.69 20.665 110.802 20.861 C 111.027 21.264 111.027 21.755 110.802 22.158 C 110.69 22.353 110.527 22.515 110.331 22.625 C 109.909 22.853 109.401 22.853 108.98 22.625 M 110.216 22.476 C 110.38 22.383 110.515 22.246 110.606 22.08 C 110.795 21.723 110.795 21.295 110.606 20.938 C 110.515 20.772 110.38 20.635 110.216 20.542 C 109.866 20.351 109.444 20.351 109.095 20.542 C 108.931 20.635 108.795 20.773 108.704 20.938 C 108.516 21.296 108.516 21.723 108.704 22.08 C 108.796 22.246 108.931 22.382 109.095 22.476 C 109.444 22.668 109.867 22.668 110.216 22.476 Z  M 109.109 22.125 L 109.109 22.036 L 109.127 22.022 L 109.187 22.022 C 109.207 22.021 109.225 22.013 109.239 21.999 C 109.253 21.986 109.261 21.967 109.261 21.948 L 109.261 21.014 C 109.261 20.995 109.253 20.976 109.239 20.963 C 109.226 20.949 109.207 20.94 109.187 20.94 L 109.127 20.94 L 109.109 20.926 L 109.109 20.838 L 109.127 20.823 L 109.65 20.823 C 109.776 20.818 109.9 20.853 110.004 20.924 C 110.091 20.991 110.14 21.097 110.134 21.207 C 110.135 21.299 110.099 21.388 110.034 21.452 C 109.965 21.523 109.875 21.567 109.777 21.578 L 109.898 21.613 L 110.131 21.982 C 110.144 22.007 110.17 22.023 110.198 22.024 L 110.258 22.024 L 110.272 22.038 L 110.272 22.127 L 110.258 22.141 L 109.95 22.141 L 109.929 22.127 L 109.604 21.585 L 109.527 21.585 L 109.527 21.957 C 109.526 21.976 109.535 21.995 109.55 22.008 C 109.563 22.022 109.581 22.031 109.601 22.031 L 109.66 22.031 L 109.678 22.045 L 109.678 22.134 L 109.66 22.148 L 109.127 22.148 L 109.109 22.125 Z  M 109.612 21.467 C 109.682 21.471 109.751 21.447 109.802 21.399 C 109.85 21.346 109.875 21.276 109.87 21.205 C 109.873 21.135 109.85 21.067 109.806 21.013 C 109.763 20.964 109.701 20.938 109.636 20.94 L 109.598 20.94 C 109.558 20.943 109.526 20.974 109.523 21.014 L 109.523 21.467 L 109.612 21.467 Z " fill="rgb(0,104,74)"/></g></g></svg>