<?xml version="1.0" encoding="UTF-8" standalone="no"?><!-- Generator: Gravit.io --><svg xmlns="http://www.w3.org/2000/svg" xmlns:xlink="http://www.w3.org/1999/xlink" style="isolation:isolate" viewBox="0 0 28 28" width="28pt" height="28pt"><defs><clipPath id="_clipPath_zapgaVl42GTnqfr7pO7G8eGzmIlZO16v"><rect width="28" height="28"/></clipPath></defs><g clip-path="url(#_clipPath_zapgaVl42GTnqfr7pO7G8eGzmIlZO16v)"><path d="M 4.2 0 L 23.8 0 C 26.118 0 28 1.882 28 4.2 L 28 23.8 C 28 26.118 26.118 28 23.8 28 L 4.2 28 C 1.882 28 0 26.118 0 23.8 L 0 4.2 C 0 1.882 1.882 0 4.2 0 Z" style="stroke:none;fill:#FFFFFF;stroke-miterlimit:10;"/><clipPath id="_clipPath_AzYdubOd8v3ExVUW2LMax3WbxQv96FGd"><rect x="1.5" y="1.5" width="25" height="25" transform="matrix(1,0,0,1,0,0)" fill="rgb(255,255,255)"/></clipPath><g clip-path="url(#_clipPath_AzYdubOd8v3ExVUW2LMax3WbxQv96FGd)"><g><g><path d=" M 12.977 1.767 C 13.596 1.412 14.404 1.411 15.023 1.767 C 18.139 3.528 21.256 5.285 24.371 7.047 C 24.957 7.377 25.349 8.029 25.343 8.704 L 25.343 19.297 C 25.347 20 24.917 20.668 24.298 20.99 C 21.193 22.741 18.089 24.495 14.984 26.246 C 14.351 26.607 13.528 26.579 12.914 26.187 C 11.983 25.648 11.051 25.111 10.12 24.571 C 9.929 24.458 9.715 24.368 9.58 24.184 C 9.699 24.023 9.912 24.004 10.084 23.934 C 10.473 23.81 10.829 23.612 11.187 23.42 C 11.277 23.357 11.388 23.381 11.474 23.437 C 12.27 23.893 13.059 24.363 13.858 24.815 C 14.029 24.913 14.201 24.783 14.346 24.702 C 17.395 22.979 20.446 21.263 23.493 19.54 C 23.605 19.486 23.668 19.366 23.659 19.242 C 23.661 15.748 23.66 12.253 23.66 8.759 C 23.673 8.619 23.592 8.489 23.465 8.432 C 20.37 6.689 17.277 4.944 14.182 3.2 C 14.072 3.124 13.928 3.124 13.818 3.199 C 10.723 4.944 7.63 6.69 4.537 8.433 C 4.41 8.491 4.325 8.618 4.34 8.759 C 4.34 12.253 4.34 15.748 4.34 19.243 C 4.329 19.366 4.396 19.484 4.508 19.537 C 5.334 20.005 6.161 20.47 6.988 20.937 C 7.453 21.188 8.024 21.336 8.538 21.144 C 8.989 20.982 9.307 20.52 9.298 20.039 C 9.303 16.565 9.296 13.091 9.302 9.618 C 9.29 9.463 9.437 9.336 9.587 9.351 C 9.983 9.348 10.38 9.346 10.777 9.352 C 10.943 9.348 11.057 9.514 11.037 9.67 C 11.035 13.165 11.04 16.662 11.034 20.157 C 11.035 21.089 10.652 22.103 9.79 22.559 C 8.729 23.109 7.416 22.992 6.367 22.464 C 5.459 22.012 4.593 21.477 3.701 20.991 C 3.081 20.671 2.653 20 2.657 19.297 L 2.657 8.704 C 2.65 8.015 3.058 7.351 3.663 7.026 C 6.767 5.273 9.871 3.52 12.977 1.767 Z " fill="rgb(140,200,75)"/><path d=" M 15.686 9.104 C 17.039 9.017 18.489 9.053 19.708 9.72 C 20.652 10.231 21.175 11.304 21.191 12.353 C 21.165 12.494 21.017 12.571 20.882 12.563 C 20.489 12.562 20.096 12.568 19.704 12.56 C 19.537 12.566 19.44 12.413 19.419 12.265 C 19.306 11.763 19.032 11.266 18.561 11.025 C 17.836 10.662 16.996 10.68 16.205 10.687 C 15.629 10.718 15.008 10.768 14.52 11.107 C 14.144 11.364 14.03 11.883 14.164 12.301 C 14.29 12.601 14.637 12.697 14.92 12.787 C 16.552 13.213 18.281 13.171 19.882 13.733 C 20.546 13.962 21.194 14.407 21.421 15.101 C 21.717 16.031 21.588 17.143 20.925 17.889 C 20.388 18.504 19.607 18.838 18.828 19.021 C 17.79 19.252 16.714 19.257 15.662 19.154 C 14.671 19.042 13.64 18.781 12.876 18.107 C 12.222 17.539 11.903 16.654 11.935 15.801 C 11.942 15.657 12.086 15.556 12.224 15.568 C 12.62 15.565 13.015 15.564 13.411 15.569 C 13.569 15.557 13.686 15.694 13.694 15.843 C 13.767 16.321 13.946 16.822 14.363 17.105 C 15.168 17.625 16.177 17.589 17.097 17.604 C 17.861 17.57 18.717 17.56 19.339 17.055 C 19.668 16.768 19.765 16.287 19.677 15.872 C 19.58 15.523 19.214 15.361 18.901 15.254 C 17.289 14.744 15.541 14.929 13.946 14.353 C 13.297 14.124 12.671 13.691 12.422 13.026 C 12.075 12.084 12.234 10.919 12.965 10.197 C 13.678 9.479 14.707 9.204 15.686 9.104 L 15.686 9.104 Z " fill="rgb(140,200,75)"/></g></g></g></g></svg>