<?xml version="1.0" encoding="UTF-8" standalone="no"?><!-- Generator: Gravit.io --><svg xmlns="http://www.w3.org/2000/svg" xmlns:xlink="http://www.w3.org/1999/xlink" style="isolation:isolate" viewBox="0 0 28 28" width="28pt" height="28pt"><defs><clipPath id="_clipPath_KYRZOfj0Mv4N6a6Ft36TdCruFXZzp6K8"><rect width="28" height="28"/></clipPath></defs><g clip-path="url(#_clipPath_KYRZOfj0Mv4N6a6Ft36TdCruFXZzp6K8)"><g><path d=" M 12.854 0.299 C 13.548 -0.099 14.452 -0.1 15.146 0.299 C 18.636 2.271 22.127 4.239 25.616 6.213 C 26.272 6.582 26.711 7.313 26.704 8.069 L 26.704 19.933 C 26.709 20.72 26.227 21.468 25.534 21.829 C 22.056 23.79 18.58 25.754 15.102 27.715 C 14.393 28.12 13.471 28.089 12.784 27.65 C 11.741 27.046 10.697 26.444 9.654 25.84 C 9.441 25.713 9.201 25.612 9.05 25.406 C 9.183 25.226 9.421 25.204 9.614 25.126 C 10.05 24.987 10.449 24.765 10.849 24.55 C 10.95 24.48 11.074 24.507 11.171 24.569 C 12.062 25.08 12.946 25.606 13.841 26.113 C 14.032 26.223 14.225 26.077 14.388 25.986 C 17.802 24.056 21.219 22.135 24.632 20.205 C 24.758 20.144 24.828 20.01 24.818 19.871 C 24.82 15.958 24.819 12.043 24.819 8.13 C 24.834 7.973 24.743 7.828 24.601 7.764 C 21.134 5.812 17.67 3.857 14.204 1.904 C 14.081 1.819 13.919 1.819 13.796 1.903 C 10.33 3.857 6.866 5.813 3.401 7.765 C 3.259 7.83 3.164 7.972 3.181 8.13 C 3.181 12.043 3.181 15.958 3.181 19.872 C 3.169 20.01 3.244 20.142 3.369 20.201 C 4.294 20.726 5.22 21.246 6.146 21.769 C 6.667 22.05 7.307 22.216 7.882 22.001 C 8.388 21.82 8.744 21.302 8.734 20.764 C 8.739 16.873 8.732 12.982 8.738 9.092 C 8.725 8.919 8.889 8.776 9.057 8.793 C 9.501 8.79 9.946 8.787 10.39 8.794 C 10.576 8.79 10.704 8.976 10.681 9.15 C 10.679 13.065 10.685 16.981 10.678 20.896 C 10.679 21.94 10.25 23.075 9.285 23.586 C 8.096 24.202 6.626 24.071 5.451 23.48 C 4.434 22.973 3.464 22.374 2.465 21.83 C 1.771 21.471 1.291 20.72 1.296 19.933 L 1.296 8.069 C 1.288 7.297 1.745 6.553 2.422 6.189 C 5.899 4.226 9.376 2.262 12.854 0.299 Z " fill="rgb(140,200,75)"/><path d=" M 15.888 8.517 C 17.404 8.419 19.028 8.459 20.393 9.206 C 21.45 9.779 22.036 10.981 22.054 12.155 C 22.025 12.313 21.859 12.4 21.708 12.39 C 21.268 12.389 20.828 12.396 20.388 12.387 C 20.201 12.394 20.093 12.222 20.069 12.057 C 19.943 11.495 19.636 10.938 19.108 10.668 C 18.296 10.261 17.355 10.282 16.47 10.29 C 15.824 10.324 15.129 10.38 14.582 10.76 C 14.161 11.048 14.034 11.629 14.184 12.097 C 14.325 12.433 14.713 12.541 15.03 12.641 C 16.858 13.119 18.795 13.072 20.588 13.701 C 21.331 13.957 22.057 14.456 22.311 15.233 C 22.643 16.275 22.498 17.52 21.756 18.356 C 21.155 19.045 20.28 19.419 19.407 19.623 C 18.245 19.882 17.04 19.888 15.861 19.773 C 14.751 19.647 13.597 19.355 12.741 18.6 C 12.009 17.964 11.651 16.973 11.687 16.017 C 11.695 15.856 11.856 15.743 12.011 15.756 C 12.454 15.753 12.897 15.752 13.34 15.757 C 13.517 15.744 13.648 15.897 13.657 16.064 C 13.739 16.599 13.94 17.161 14.407 17.478 C 15.308 18.06 16.438 18.02 17.469 18.036 C 18.324 17.998 19.283 17.987 19.98 17.422 C 20.348 17.1 20.457 16.561 20.358 16.097 C 20.25 15.706 19.84 15.524 19.489 15.404 C 17.684 14.833 15.726 15.041 13.939 14.395 C 13.213 14.139 12.512 13.654 12.233 12.909 C 11.844 11.854 12.022 10.549 12.841 9.741 C 13.639 8.937 14.792 8.628 15.888 8.517 L 15.888 8.517 Z " fill="rgb(140,200,75)"/></g></g></svg>