<?xml version="1.0" encoding="UTF-8" standalone="no"?><!-- Generator: Gravit.io --><svg xmlns="http://www.w3.org/2000/svg" xmlns:xlink="http://www.w3.org/1999/xlink" style="isolation:isolate" viewBox="0 0 28 28" width="28pt" height="28pt"><defs><clipPath id="_clipPath_CTJHdRTkMsZxngX2pw0U5K96BRqPaPQ3"><rect width="28" height="28"/></clipPath></defs><g clip-path="url(#_clipPath_CTJHdRTkMsZxngX2pw0U5K96BRqPaPQ3)"><g><path d=" M 4.2 0 L 23.8 0 C 26.118 0 28 1.882 28 4.2 L 28 23.8 C 28 26.118 26.118 28 23.8 28 L 4.2 28 C 1.882 28 0 26.118 0 23.8 L 0 4.2 C 0 1.882 1.882 0 4.2 0 Z " fill="rgb(255,255,255)"/><path d=" M 12.797 17.008 L 24.445 17.008 L 24.445 10.883 L 3.555 10.883 L 3.555 17.008 L 9.734 17.008 L 9.734 11.484 M 9.078 18.211 L 14 18.211 M 7.273 12.688 L 7.273 16.406 M 13.398 12.688 L 13.398 15.148 M 15.859 11.484 L 15.859 16.406 M 19.523 12.688 L 19.523 16.406 M 21.984 12.688 L 21.984 16.406" fill="none" vector-effect="non-scaling-stroke" stroke-width="1.3" stroke="rgb(203,56,55)" stroke-linejoin="miter" stroke-linecap="butt" stroke-miterlimit="4"/></g></g></svg>