<?xml version="1.0" encoding="UTF-8" standalone="no"?><!-- Generator: Gravit.io --><svg xmlns="http://www.w3.org/2000/svg" xmlns:xlink="http://www.w3.org/1999/xlink" style="isolation:isolate" viewBox="0 0 28 28" width="28pt" height="28pt"><defs><clipPath id="_clipPath_OcuW8pUHhCygf8VohvV5KND06t7AS1jP"><rect width="28" height="28"/></clipPath></defs><g clip-path="url(#_clipPath_OcuW8pUHhCygf8VohvV5KND06t7AS1jP)"><path d="M 6.02 0 L 21.98 0 C 25.303 0 28 2.697 28 6.02 L 28 21.98 C 28 25.303 25.303 28 21.98 28 L 6.02 28 C 2.697 28 0 25.303 0 21.98 L 0 6.02 C 0 2.697 2.697 0 6.02 0 Z" style="stroke:none;fill:#FFFFFF;stroke-miterlimit:10;"/><g><path d=" M 12.591 6.832 C 11.919 5.676 10.238 5.676 9.565 6.832 L 2.237 19.433 C 1.564 20.59 2.405 22.035 3.75 22.035 L 9.471 22.035 C 8.896 21.533 8.683 20.664 9.118 19.918 L 14.669 10.404 L 12.591 6.832 Z " fill-rule="evenodd" fill="rgb(128,238,192)"/><path d=" M 17.235 9.596 C 17.791 8.65 19.183 8.65 19.739 9.596 L 25.804 19.906 C 26.361 20.852 25.665 22.035 24.552 22.035 L 12.422 22.035 C 11.309 22.035 10.613 20.852 11.17 19.906 L 17.235 9.596 Z " fill="rgb(0,220,130)"/></g></g></svg>