<?xml version="1.0" encoding="UTF-8" standalone="no"?><!-- Generator: Gravit.io --><svg xmlns="http://www.w3.org/2000/svg" xmlns:xlink="http://www.w3.org/1999/xlink" style="isolation:isolate" viewBox="0 0 28 28" width="28pt" height="28pt"><defs><clipPath id="_clipPath_LLSE6HVbeqf7J50amwvMOBPwVo2zM28V"><rect width="28" height="28"/></clipPath></defs><g clip-path="url(#_clipPath_LLSE6HVbeqf7J50amwvMOBPwVo2zM28V)"><path d="M 4.2 0 L 23.8 0 C 26.118 0 28 1.882 28 4.2 L 28 23.8 C 28 26.118 26.118 28 23.8 28 L 4.2 28 C 1.882 28 0 26.118 0 23.8 L 0 4.2 C 0 1.882 1.882 0 4.2 0 Z" style="stroke:none;fill:#FFFFFF;stroke-miterlimit:10;"/><g><path d=" M 10.094 2 C 9.973 2.004 9.842 2.049 9.694 2.166 C 9.331 2.026 8.979 1.977 8.664 2.262 C 8.178 2.199 8.02 2.329 7.9 2.481 C 7.793 2.479 7.101 2.372 6.784 2.845 C 5.987 2.751 5.734 3.314 6.02 3.839 C 5.857 4.091 5.688 4.341 6.069 4.821 C 5.935 5.089 6.018 5.379 6.335 5.731 C 6.252 6.107 6.416 6.373 6.712 6.58 C 6.656 7.095 7.184 7.394 7.341 7.501 C 7.402 7.801 7.528 8.084 8.13 8.24 C 8.23 8.688 8.592 8.765 8.943 8.859 C 7.784 9.532 6.79 10.419 6.797 12.594 L 6.627 12.896 C 5.298 13.705 4.102 16.302 5.972 18.413 C 6.094 19.074 6.299 19.549 6.481 20.074 C 6.754 22.191 8.534 23.182 9.003 23.3 C 9.691 23.824 10.424 24.321 11.416 24.669 C 12.35 25.633 13.363 26.001 14.381 26 C 14.396 26 16.457 25.633 17.392 24.669 C 18.383 24.321 19.116 23.824 19.804 23.3 C 20.274 23.182 22.054 22.191 22.326 20.074 C 22.509 19.549 22.714 19.074 22.836 18.413 C 24.705 16.302 23.51 13.704 22.181 12.896 L 22.011 12.593 C 22.018 10.419 21.024 9.532 19.865 8.858 C 20.215 8.765 20.577 8.687 20.677 8.24 C 21.279 8.084 21.405 7.8 21.466 7.5 C 21.623 7.394 22.151 7.094 22.096 6.579 C 22.391 6.372 22.556 6.107 22.472 5.731 C 22.789 5.379 22.873 5.089 22.738 4.821 C 23.119 4.341 22.95 4.091 22.787 3.839 C 23.073 3.314 22.821 2.75 22.023 2.845 C 21.706 2.372 21.014 2.479 20.907 2.481 C 20.787 2.329 20.629 2.199 20.143 2.262 C 19.828 1.977 19.476 2.026 19.113 2.166 C 18.682 1.826 18.397 2.098 18.071 2.201 C 17.549 2.031 17.429 2.264 17.173 2.36 C 16.603 2.239 16.43 2.501 16.157 2.778 L 15.84 2.771 C 14.981 3.278 14.554 4.308 14.403 4.838 C 14.252 4.308 13.826 3.277 12.967 2.771 L 12.65 2.778 C 12.377 2.501 12.204 2.239 11.634 2.36 C 11.378 2.264 11.259 2.031 10.736 2.201 C 10.522 2.134 10.326 1.993 10.094 2 L 4.199 12.351" fill="rgb(0,0,0)"/><path d=" M 8.385 4.227 C 10.663 5.402 11.988 6.352 12.713 7.161 C 12.342 8.651 10.403 8.719 9.694 8.677 C 9.839 8.609 9.96 8.528 10.003 8.404 C 9.825 8.278 9.195 8.391 8.754 8.143 C 8.924 8.108 9.003 8.074 9.082 7.949 C 8.666 7.817 8.218 7.702 7.954 7.482 C 8.096 7.484 8.229 7.514 8.415 7.385 C 8.042 7.185 7.645 7.026 7.336 6.719 C 7.528 6.714 7.736 6.717 7.796 6.646 C 7.455 6.435 7.168 6.2 6.93 5.943 C 7.199 5.975 7.313 5.947 7.378 5.9 C 7.12 5.636 6.794 5.413 6.639 5.088 C 6.839 5.157 7.022 5.183 7.154 5.082 C 7.066 4.884 6.691 4.768 6.475 4.306 C 6.686 4.326 6.909 4.352 6.954 4.306 C 6.856 3.907 6.688 3.683 6.524 3.451 C 6.975 3.444 7.658 3.453 7.627 3.415 L 7.348 3.13 C 7.789 3.011 8.239 3.149 8.567 3.251 C 8.714 3.135 8.564 2.988 8.385 2.839 C 8.759 2.889 9.097 2.975 9.403 3.093 C 9.567 2.946 9.297 2.798 9.167 2.651 C 9.745 2.761 9.99 2.915 10.234 3.069 C 10.41 2.9 10.244 2.756 10.125 2.608 C 10.561 2.77 10.785 2.978 11.022 3.184 C 11.102 3.076 11.226 2.997 11.076 2.736 C 11.386 2.914 11.619 3.125 11.792 3.36 C 11.984 3.238 11.906 3.071 11.907 2.918 C 12.229 3.179 12.433 3.458 12.683 3.73 C 12.733 3.693 12.778 3.569 12.817 3.372 C 13.584 4.117 14.669 5.993 13.095 6.737 C 11.756 5.632 10.157 4.829 8.384 4.227 L 8.385 4.227 Z " fill="rgb(117,169,40)"/><path d=" M 20.474 4.227 C 18.196 5.402 16.871 6.352 16.146 7.161 C 16.517 8.651 18.456 8.719 19.165 8.677 C 19.02 8.609 18.898 8.528 18.856 8.404 C 19.033 8.278 19.664 8.391 20.104 8.143 C 19.935 8.108 19.856 8.074 19.777 7.949 C 20.193 7.817 20.641 7.702 20.905 7.482 C 20.762 7.484 20.63 7.514 20.444 7.385 C 20.817 7.185 21.214 7.026 21.523 6.719 C 21.33 6.714 21.123 6.717 21.062 6.646 C 21.403 6.435 21.691 6.2 21.929 5.943 C 21.66 5.975 21.546 5.947 21.481 5.9 C 21.738 5.636 22.065 5.413 22.22 5.088 C 22.02 5.157 21.837 5.183 21.705 5.082 C 21.793 4.884 22.168 4.768 22.384 4.306 C 22.173 4.326 21.95 4.352 21.905 4.306 C 22.003 3.907 22.171 3.683 22.335 3.451 C 21.884 3.444 21.201 3.453 21.232 3.415 L 21.511 3.13 C 21.07 3.011 20.62 3.149 20.292 3.251 C 20.145 3.135 20.295 2.988 20.474 2.839 C 20.1 2.889 19.761 2.975 19.456 3.093 C 19.292 2.946 19.562 2.798 19.692 2.651 C 19.114 2.76 18.869 2.915 18.625 3.069 C 18.448 2.9 18.615 2.756 18.734 2.608 C 18.298 2.77 18.074 2.978 17.837 3.184 C 17.757 3.076 17.633 2.997 17.782 2.736 C 17.473 2.914 17.24 3.124 17.067 3.36 C 16.875 3.238 16.953 3.071 16.952 2.917 C 16.63 3.179 16.426 3.458 16.176 3.73 C 16.126 3.693 16.081 3.569 16.042 3.372 C 15.275 4.117 14.19 5.993 15.764 6.737 C 17.102 5.632 18.702 4.829 20.474 4.227 L 20.474 4.227 Z " fill="rgb(117,169,40)"/><path d=" M 17.189 19.394 C 17.196 20.784 15.981 21.916 14.474 21.924 C 12.966 21.931 11.738 20.81 11.73 19.42 C 11.73 19.412 11.73 19.403 11.73 19.394 C 11.722 18.004 12.938 16.871 14.445 16.864 C 15.952 16.857 17.181 17.977 17.189 19.367 L 17.189 19.394 Z " fill="rgb(188,17,66)"/><path d=" M 12.88 12.205 C 14.011 12.946 14.215 14.625 13.335 15.956 C 12.456 17.286 10.826 17.765 9.696 17.024 C 8.565 16.283 8.361 14.603 9.24 13.273 C 10.12 11.942 11.749 11.464 12.88 12.205 Z " fill="rgb(188,17,66)"/><path d=" M 15.932 12.07 C 14.802 12.811 14.598 14.491 15.477 15.821 C 16.356 17.152 17.986 17.63 19.117 16.89 C 20.248 16.149 20.452 14.469 19.572 13.138 C 18.693 11.808 17.063 11.33 15.932 12.07 Z " fill="rgb(188,17,66)"/><path d=" M 7.228 13.416 C 8.449 13.089 7.64 18.467 6.647 18.026 C 5.554 17.147 5.202 14.573 7.228 13.416 Z " fill="rgb(188,17,66)"/><path d=" M 21.338 13.349 C 20.117 13.022 20.926 18.4 21.919 17.959 C 23.012 17.08 23.364 14.506 21.338 13.349 Z " fill="rgb(188,17,66)"/><path d=" M 17.189 9.344 C 19.296 8.988 21.05 10.24 20.979 12.525 C 20.91 13.4 16.413 9.474 17.189 9.344 Z " fill="rgb(188,17,66)"/><path d=" M 11.368 9.277 C 9.261 8.921 7.508 10.173 7.578 12.458 C 7.648 13.333 12.144 9.407 11.368 9.277 Z " fill="rgb(188,17,66)"/><path d=" M 14.395 8.744 C 13.137 8.711 11.93 9.677 11.927 10.238 C 11.924 10.918 12.921 11.615 14.403 11.633 C 15.916 11.644 16.882 11.075 16.887 10.373 C 16.892 9.576 15.51 8.732 14.395 8.744 L 14.395 8.744 Z " fill="rgb(188,17,66)"/><path d=" M 14.471 22.705 C 15.568 22.658 17.039 23.059 17.042 23.591 C 17.06 24.107 15.708 25.274 14.399 25.252 C 13.043 25.31 11.714 24.141 11.731 23.736 C 11.711 23.142 13.382 22.678 14.471 22.705 Z " fill="rgb(188,17,66)"/><path d=" M 10.422 19.553 C 11.202 20.493 11.558 22.145 10.907 22.632 C 10.29 23.004 8.794 22.851 7.73 21.323 C 7.012 20.041 7.105 18.736 7.609 18.352 C 8.362 17.893 9.526 18.513 10.422 19.553 L 10.422 19.553 Z " fill="rgb(188,17,66)"/><path d=" M 18.365 19.255 C 17.52 20.244 17.05 22.048 17.666 22.629 C 18.255 23.081 19.837 23.018 21.005 21.397 C 21.853 20.308 21.569 18.49 21.084 18.007 C 20.364 17.451 19.331 18.163 18.365 19.254 L 18.365 19.255 Z " fill="rgb(188,17,66)"/></g></g></svg>