<?xml version="1.0" encoding="UTF-8" standalone="no"?><!-- Generator: Gravit.io --><svg xmlns="http://www.w3.org/2000/svg" xmlns:xlink="http://www.w3.org/1999/xlink" style="isolation:isolate" viewBox="0 0 28 28" width="28pt" height="28pt"><defs><clipPath id="_clipPath_E3hIsOW765ySupCPCbbM0LoHiOvzhwyH"><rect width="28" height="28"/></clipPath></defs><g clip-path="url(#_clipPath_E3hIsOW765ySupCPCbbM0LoHiOvzhwyH)"><g><path d="M 4.2 0 L 23.8 0 C 26.118 0 28 1.882 28 4.2 L 28 23.8 C 28 26.118 26.118 28 23.8 28 L 4.2 28 C 1.882 28 0 26.118 0 23.8 L 0 4.2 C 0 1.882 1.882 0 4.2 0 Z" style="stroke:none;fill:#CC6699;stroke-miterlimit:10;"/><path d=" M 14.109 4.813 C 8.859 6.617 5.469 10.281 5.797 12.469 C 6.125 14.656 9.406 16.406 10.883 17.555 L 10.883 17.555 C 8.969 18.539 6.563 20.016 6.617 21.93 C 6.727 24.555 9.57 23.734 10.773 22.969 C 11.977 22.203 13.18 20.07 12.414 17.828 C 14.109 17.391 15.586 17.938 16.023 18.266 C 17.719 19.469 16.844 20.836 16.242 21.055 C 15.641 21.273 16.023 21.383 16.406 21.273 C 16.789 21.164 17.609 20.617 17.609 19.688 C 17.609 17.336 15.094 16.242 11.977 17.063 C 10.172 15.148 7.711 14.273 7.82 12.195 C 7.875 11.43 8.148 9.461 13.016 7 C 17.883 4.539 21.328 5.523 20.891 7.766 C 20.234 11.156 14.328 13.453 12.25 11.484 C 12.141 11.266 11.758 11.102 11.977 11.703 C 13.07 14.438 21.93 13.18 22.313 7.383 C 22.422 4.32 17.992 3.5 14.109 4.813 Z  M 9.406 22.313 C 8.039 22.75 8.094 21.875 8.148 21.547 C 8.313 20.617 9.078 19.469 11.375 18.32 C 12.031 20.398 10.555 21.984 9.406 22.313 Z " fill="rgb(255,255,255)"/></g></g></svg>