<?xml version="1.0" encoding="UTF-8" standalone="no"?><!-- Generator: Gravit.io --><svg xmlns="http://www.w3.org/2000/svg" xmlns:xlink="http://www.w3.org/1999/xlink" style="isolation:isolate" viewBox="0 0 28 28" width="28pt" height="28pt"><defs><clipPath id="_clipPath_68cg230Ral2KDb1wY7Olc0cOplSeG9OG"><rect width="28" height="28"/></clipPath></defs><g clip-path="url(#_clipPath_68cg230Ral2KDb1wY7Olc0cOplSeG9OG)"><g><circle vector-effect="non-scaling-stroke" cx="3.978014348694241" cy="12.700743046087773" r="3.978014348694226" fill="rgb(233,80,14)"/><circle vector-effect="non-scaling-stroke" cx="20.54496427613586" cy="3.978015078424625" r="3.978015078424626" fill="rgb(233,80,14)"/><path d=" M 12.95 22.939 C 10.103 22.337 7.677 20.486 6.343 17.9 C 5.279 18.383 4.092 18.529 2.942 18.318 C 4.557 22.311 8.052 25.24 12.266 26.132 C 13.194 26.331 14.141 26.428 15.09 26.423 C 14.36 25.465 13.952 24.301 13.926 23.097 C 13.598 23.06 13.271 23.007 12.95 22.939 Z " fill="rgb(233,80,14)"/><circle vector-effect="non-scaling-stroke" cx="19.648737495252703" cy="22.96050105762872" r="3.978015078424626" fill="rgb(233,80,14)"/><path d=" M 25.184 21.499 C 28.682 17.086 28.946 10.924 25.837 6.229 C 25.377 7.311 24.596 8.226 23.6 8.849 C 25.219 11.906 25.097 15.592 23.281 18.536 C 24.212 19.298 24.878 20.335 25.184 21.499 Z " fill="rgb(233,80,14)"/><path d=" M 3.671 6.996 Q 3.823 6.988 3.974 6.988 C 5.04 6.988 6.085 7.286 6.991 7.847 C 8.77 5.277 11.678 3.722 14.803 3.669 C 14.867 2.496 15.288 1.37 16.01 0.443 C 11.007 0.046 6.147 2.628 3.671 6.996 Z " fill="rgb(233,80,14)"/></g></g></svg>