<?xml version="1.0" encoding="UTF-8" standalone="no"?><!-- Generator: Gravit.io --><svg xmlns="http://www.w3.org/2000/svg" xmlns:xlink="http://www.w3.org/1999/xlink" style="isolation:isolate" viewBox="0 0 28 28" width="28pt" height="28pt"><defs><clipPath id="_clipPath_IDGLbVYH1o93s4dEoqoqElZN9yR57mOh"><rect width="28" height="28"/></clipPath></defs><g clip-path="url(#_clipPath_IDGLbVYH1o93s4dEoqoqElZN9yR57mOh)"><path d="M 4.2 0 L 23.8 0 C 26.118 0 28 1.882 28 4.2 L 28 23.8 C 28 26.118 26.118 28 23.8 28 L 4.2 28 C 1.882 28 0 26.118 0 23.8 L 0 4.2 C 0 1.882 1.882 0 4.2 0 Z" style="stroke:none;fill:#FFFFFF;stroke-miterlimit:10;"/><clipPath id="_clipPath_M6aWiXR7VQL0IuAbOaxe6rxNT9rYRkfz"><rect x="1.5" y="1.5" width="25" height="25" transform="matrix(1,0,0,1,0,0)" fill="rgb(255,255,255)"/></clipPath><g clip-path="url(#_clipPath_M6aWiXR7VQL0IuAbOaxe6rxNT9rYRkfz)"><g><g><circle vector-effect="non-scaling-stroke" cx="5.0517985256198585" cy="12.839949148292654" r="3.5517985256198443" fill="rgb(233,80,14)"/><circle vector-effect="non-scaling-stroke" cx="19.843718103692733" cy="5.051799177164844" r="3.5517991771648454" fill="rgb(233,80,14)"/><path d=" M 13.062 21.981 C 10.521 21.444 8.354 19.791 7.163 17.482 C 6.213 17.913 5.154 18.044 4.127 17.855 C 5.569 21.421 8.689 24.036 12.452 24.832 C 13.28 25.01 14.126 25.096 14.973 25.092 C 14.321 24.237 13.957 23.197 13.934 22.122 C 13.641 22.089 13.349 22.042 13.062 21.981 Z " fill="rgb(233,80,14)"/><circle vector-effect="non-scaling-stroke" cx="19.043515620761344" cy="22.000447372882785" r="3.5517991771648454" fill="rgb(233,80,14)"/><path d=" M 23.986 20.696 C 27.109 16.755 27.345 11.254 24.569 7.062 C 24.158 8.028 23.461 8.845 22.571 9.401 C 24.017 12.13 23.908 15.421 22.287 18.05 C 23.118 18.73 23.713 19.656 23.986 20.696 Z " fill="rgb(233,80,14)"/><path d=" M 4.778 7.746 Q 4.913 7.739 5.048 7.739 C 6 7.739 6.933 8.005 7.742 8.506 C 9.33 6.212 11.927 4.823 14.717 4.776 C 14.774 3.729 15.15 2.723 15.795 1.896 C 11.328 1.541 6.988 3.846 4.778 7.746 Z " fill="rgb(233,80,14)"/></g></g></g></g></svg>