<?xml version="1.0" encoding="UTF-8" standalone="no"?><!-- Generator: Gravit.io --><svg xmlns="http://www.w3.org/2000/svg" xmlns:xlink="http://www.w3.org/1999/xlink" style="isolation:isolate" viewBox="0 0 28 28" width="28pt" height="28pt"><defs><clipPath id="_clipPath_3OJQjoauTQsRZ0qdLKQ9wDYeewVvCvVi"><rect width="28" height="28"/></clipPath></defs><g clip-path="url(#_clipPath_3OJQjoauTQsRZ0qdLKQ9wDYeewVvCvVi)"><clipPath id="_clipPath_k70s1XeyHphxOnDFWdrfE21TVtvTzORx"><rect x="0" y="0" width="28" height="28" transform="matrix(1,0,0,1,0,0)" fill="rgb(255,255,255)"/></clipPath><g clip-path="url(#_clipPath_k70s1XeyHphxOnDFWdrfE21TVtvTzORx)"><g><g><path d=" M 4.2 0 L 23.8 0 C 26.118 0 28 1.882 28 4.2 L 28 23.8 C 28 26.118 26.118 28 23.8 28 L 4.2 28 C 1.882 28 0 26.118 0 23.8 L 0 4.2 C 0 1.882 1.882 0 4.2 0 Z " fill="rgb(255,255,255)"/><g><path d=" M 3.5 5.589 L 11.594 5.589 L 14 9.8 L 16.406 5.589 L 24.5 5.589 L 14 23.8" fill="rgb(66,184,131)"/><path d=" M 7.711 5.589 L 11.594 5.589 L 14 9.8 L 16.406 5.589 L 20.289 5.589 L 14 16.527" fill="rgb(53,73,94)"/></g></g></g></g></g></svg>