<?xml version="1.0" encoding="UTF-8" standalone="no"?><!-- Generator: Gravit.io --><svg xmlns="http://www.w3.org/2000/svg" xmlns:xlink="http://www.w3.org/1999/xlink" style="isolation:isolate" viewBox="0 0 28 28" width="28pt" height="28pt"><defs><clipPath id="_clipPath_sfg9aMjCoIUvUciBLq9ZDvdM0OADbXUw"><rect width="28" height="28"/></clipPath></defs><g clip-path="url(#_clipPath_sfg9aMjCoIUvUciBLq9ZDvdM0OADbXUw)"><path d="M 4.2 0 L 23.8 0 C 26.118 0 28 1.882 28 4.2 L 28 23.8 C 28 26.118 26.118 28 23.8 28 L 4.2 28 C 1.882 28 0 26.118 0 23.8 L 0 4.2 C 0 1.882 1.882 0 4.2 0 Z" style="stroke:none;fill:#005A9C;stroke-miterlimit:10;"/><path d=" M 9.023 8.313 L 11.047 15.094 L 13.07 8.313 L 18.484 8.313 L 18.484 9.023 L 16.406 12.523 C 17.281 12.742 18.594 13.617 18.594 15.914 C 18.594 20.18 14.055 20.727 12.961 17.227 L 14.055 16.789 C 15.094 18.977 17.063 18.32 17.063 15.914 C 17.063 15.203 16.953 13.672 15.094 13.672 L 14.547 13.672 L 14.547 13.07 L 16.516 9.734 L 14.055 9.734 L 11.211 19.523 L 11.102 19.523 L 8.969 12.633 L 6.945 19.523 L 6.781 19.523 L 3.445 8.313 L 4.867 8.313 L 6.891 15.094 L 8.258 10.555 L 7.602 8.313 M 19.742 14.766 C 18.047 11.32 21 5.742 23.406 9.898 L 24.227 8.258 L 24.445 9.68 L 23.57 11.266 C 21.984 8.313 19.195 10.5 19.742 14.766 Z  M 18.867 16.133 C 20.563 19.414 22.914 18.867 24.281 16.297 L 24.555 17.445 C 23.023 20.344 20.016 20.289 18.813 16.133 L 18.867 16.133 Z  M 19.742 14.766 C 18.047 11.32 21 5.742 23.406 9.898 L 24.227 8.258 L 24.445 9.68 L 23.57 11.266 C 21.984 8.313 19.195 10.5 19.742 14.766 Z " fill="rgb(255,255,255)"/></g></svg>