<?xml version="1.0" encoding="UTF-8" standalone="no"?><!-- Generator: Gravit.io --><svg xmlns="http://www.w3.org/2000/svg" xmlns:xlink="http://www.w3.org/1999/xlink" style="isolation:isolate" viewBox="0 0 28 28" width="28pt" height="28pt"><defs><clipPath id="_clipPath_s8wEkwxS5MwFYU5aNE6Ij92KlEcmpVoQ"><rect width="28" height="28"/></clipPath></defs><g clip-path="url(#_clipPath_s8wEkwxS5MwFYU5aNE6Ij92KlEcmpVoQ)"><g><path d="M 4.2 0 L 23.8 0 C 26.118 0 28 1.882 28 4.2 L 28 23.8 C 28 26.118 26.118 28 23.8 28 L 4.2 28 C 1.882 28 0 26.118 0 23.8 L 0 4.2 C 0 1.882 1.882 0 4.2 0 Z" style="stroke:none;fill:#00ADEF;stroke-miterlimit:10;"/><path d=" M 5.359 7.93 L 5.359 13.672 L 12.305 13.672 L 12.305 6.945 M 13.125 6.836 L 13.125 13.672 L 22.313 13.672 L 22.313 5.523 M 5.359 20.125 L 5.359 14.383 L 12.305 14.383 L 12.305 21.109 M 13.125 21.164 L 13.125 14.383 L 22.313 14.383 L 22.313 22.477" fill="rgb(255,255,255)"/></g></g></svg>