<?xml version="1.0" encoding="UTF-8" standalone="no"?><!-- Generator: Gravit.io --><svg xmlns="http://www.w3.org/2000/svg" xmlns:xlink="http://www.w3.org/1999/xlink" style="isolation:isolate" viewBox="0 0 28 28" width="28pt" height="28pt"><defs><clipPath id="_clipPath_A19F7igcZuzNNSPPjqGcb5OthTAHmgS8"><rect width="28" height="28"/></clipPath></defs><g clip-path="url(#_clipPath_A19F7igcZuzNNSPPjqGcb5OthTAHmgS8)"><g><path d="M 4.2 0 L 23.8 0 C 26.118 0 28 1.882 28 4.2 L 28 23.8 C 28 26.118 26.118 28 23.8 28 L 4.2 28 C 1.882 28 0 26.118 0 23.8 L 0 4.2 C 0 1.882 1.882 0 4.2 0 Z" style="stroke:none;fill:#117CAD;stroke-miterlimit:10;"/><mask id="_mask_bG0doYutQ8Zdn3jziAhhsZvpeQrkGlQG" x="-200%" y="-200%" width="400%" height="400%"><rect x="-200%" y="-200%" width="400%" height="400%" style="fill:white;"/><path d=" M 22.477 16.953 C 21.219 16.734 18.648 18.813 17.992 18.813 C 17.992 18.813 18.594 15.914 16.188 13.234 C 18.539 9.898 17.938 6.672 17.5 5.742 C 16.953 4.703 16.188 5.359 16.188 5.359 C 16.188 5.359 14.875 1.258 13.125 5.469 C 10.992 5.359 10.555 6.836 9.188 7.383 C 7.711 9.078 9.242 11.102 9.242 11.102 C 7.219 12.742 6.727 15.367 6.836 16.297 C 5.359 17.336 5.523 20.617 6.672 21 C 6.18 22.148 7.82 23.078 9.57 22.148 C 9.57 22.148 10.008 22.859 10.664 22.914 C 12.359 23.023 16.188 22.805 16.68 22.094 C 18.211 21.984 21.766 19.25 22.75 19.305 C 23.898 19.414 24.609 17.117 22.477 16.953 Z " fill="black" stroke="none"/></mask><path d=" M 22.477 16.953 C 21.219 16.734 18.648 18.813 17.992 18.813 C 17.992 18.813 18.594 15.914 16.188 13.234 C 18.539 9.898 17.938 6.672 17.5 5.742 C 16.953 4.703 16.188 5.359 16.188 5.359 C 16.188 5.359 14.875 1.258 13.125 5.469 C 10.992 5.359 10.555 6.836 9.188 7.383 C 7.711 9.078 9.242 11.102 9.242 11.102 C 7.219 12.742 6.727 15.367 6.836 16.297 C 5.359 17.336 5.523 20.617 6.672 21 C 6.18 22.148 7.82 23.078 9.57 22.148 C 9.57 22.148 10.008 22.859 10.664 22.914 C 12.359 23.023 16.188 22.805 16.68 22.094 C 18.211 21.984 21.766 19.25 22.75 19.305 C 23.898 19.414 24.609 17.117 22.477 16.953 Z " fill="rgb(17,124,173)"/><path d=" M 22.477 16.953 C 21.219 16.734 18.648 18.813 17.992 18.813 C 17.992 18.813 18.594 15.914 16.188 13.234 C 18.539 9.898 17.938 6.672 17.5 5.742 C 16.953 4.703 16.188 5.359 16.188 5.359 C 16.188 5.359 14.875 1.258 13.125 5.469 C 10.992 5.359 10.555 6.836 9.188 7.383 C 7.711 9.078 9.242 11.102 9.242 11.102 C 7.219 12.742 6.727 15.367 6.836 16.297 C 5.359 17.336 5.523 20.617 6.672 21 C 6.18 22.148 7.82 23.078 9.57 22.148 C 9.57 22.148 10.008 22.859 10.664 22.914 C 12.359 23.023 16.188 22.805 16.68 22.094 C 18.211 21.984 21.766 19.25 22.75 19.305 C 23.898 19.414 24.609 17.117 22.477 16.953 Z " fill="rgb(17,124,173)" mask="url(#_mask_bG0doYutQ8Zdn3jziAhhsZvpeQrkGlQG)" vector-effect="non-scaling-stroke" stroke-width="2" stroke="rgb(255,255,255)" stroke-linejoin="miter" stroke-linecap="butt" stroke-miterlimit="4"/><path d=" M 8.891 22.537 C 9.508 21.998 9.816 20.07 9.816 20.07 L 10.664 20.841 C 10.664 20.841 9.122 21.612 9.893 23 L 8.891 22.537 Z " fill="rgb(255,255,255)"/></g></g></svg>